<svg xmlns="http://www.w3.org/2000/svg" version="1.1" xmlns:xlink="http://www.w3.org/1999/xlink" width="1734" height="1836"><svg width="1734" height="1836" viewBox="0 0 1734 1836" fill="none" xmlns="http://www.w3.org/2000/svg">
<path d="M866.835 1825.9C1340.05 1825.9 1723.67 1419.39 1723.67 917.948C1723.67 416.502 1340.05 10 866.835 10C393.618 10 10 416.502 10 917.948C10 1419.39 393.618 1825.9 866.835 1825.9Z" stroke="#1D1D57" stroke-width="20"></path>
<path d="M803.971 525.261C765.841 504.262 739.961 463.343 739.961 416.306C739.961 347.851 794.772 292.357 862.386 292.357C930 292.357 984.811 347.851 984.811 416.306C984.811 458.923 963.567 496.517 931.215 518.825" stroke="#1D1D57" stroke-width="8"></path>
<path d="M434.248 912.099L863.785 29.4146L1286.33 919.264L434.248 912.099Z" stroke="#1D1D57" stroke-width="8"></path>
<path d="M642.021 488.993L743.459 446.073" stroke="#1D1D57" stroke-width="8"></path>
<path d="M676.3 417.022H739.261" stroke="#1D1D57" stroke-width="8"></path>
<path d="M702.361 359.792L744 379.479" stroke="#1D1D57" stroke-width="8"></path>
<path d="M728.376 308.34L763.047 341.793" stroke="#1D1D57" stroke-width="8"></path>
<path d="M760.164 243.858L799.47 310.088" stroke="#1D1D57" stroke-width="8"></path>
<path d="M794.528 169.125L828.107 295.94" stroke="#1D1D57" stroke-width="8"></path>
<path d="M863.785 29.4146L859.588 291.641" stroke="#1D1D57" stroke-width="8"></path>
<path d="M894.566 295.939L930.944 171.991" stroke="#1D1D57" stroke-width="8"></path>
<path d="M926.047 309.552L964.524 244.354" stroke="#1D1D57" stroke-width="8"></path>
<path d="M961.117 343.367L996.05 309.064" stroke="#1D1D57" stroke-width="8"></path>
<path d="M979.26 379.754L1019.1 359.608" stroke="#1D1D57" stroke-width="8"></path>
<path d="M986.21 416.306L1047.07 417.022" stroke="#1D1D57" stroke-width="8"></path>
<path d="M981.35 446.548L1079.7 487.603" stroke="#1D1D57" stroke-width="8"></path>
<path d="M972.301 473.497L1161.8 657.754" stroke="#1D1D57" stroke-width="8"></path>
<path d="M434.248 912.099L851.193 1806.25L1286.33 919.264" stroke="#1D1D57" stroke-width="8"></path>
<path d="M486.716 1023.87L1231.06 1031.75" stroke="#1D1D57" stroke-width="8"></path>
<path d="M511.201 1080.47L1201.68 1089.78" stroke="#1D1D57" stroke-width="8"></path>
<path d="M537.785 1136.35L1175.09 1146.38" stroke="#1D1D57" stroke-width="8"></path>
<path d="M563.669 1191.52L1148.51 1200.12" stroke="#1D1D57" stroke-width="8"></path>
<path d="M589.553 1246.69L1121.23 1255.29" stroke="#1D1D57" stroke-width="8"></path>
<path d="M613.339 1298.99L1097.44 1301.86" stroke="#1D1D57" stroke-width="8"></path>
<path d="M641.321 1357.02L1070.16 1358.46" stroke="#1D1D57" stroke-width="8"></path>
<path d="M667.905 1414.34L1042.18 1417.21" stroke="#1D1D57" stroke-width="8"></path>
<path d="M692.39 1466.64L1014.89 1469.51" stroke="#1D1D57" stroke-width="8"></path>
<path d="M718.274 1521.81L990.408 1521.09" stroke="#1D1D57" stroke-width="8"></path>
<path d="M747.656 1584.14L960.326 1583.43" stroke="#1D1D57" stroke-width="8"></path>
<path d="M772.141 1636.45L933.742 1637.16" stroke="#1D1D57" stroke-width="8"></path>
<path d="M796.626 1688.75L907.159 1690.18" stroke="#1D1D57" stroke-width="8"></path>
<path d="M822.51 1745.35H881.275" stroke="#1D1D57" stroke-width="8"></path>
<path d="M460.132 970.133L1258.34 976.581" stroke="#1D1D57" stroke-width="8"></path>
<path d="M557.836 657.458L753.202 465.463" stroke="#1D1D57" stroke-width="8"></path>
<path d="M1206.58 918.548L862.386 416.306L749.755 620.498" stroke="#1D1D57" stroke-width="8"></path>
<path d="M507.703 912.816L707.081 528.074L849.794 838.303L914.854 643.425L1054.07 917.115" stroke="#1D1D57" stroke-width="8"></path>
<path d="M1016.99 917.115C1017 917.112 1013.11 898.879 998.103 892.038C982.721 885.027 972.175 864.628 969.42 847.617C966.285 828.254 966.653 807.136 958.927 788.867C950.975 770.064 933.178 758.119 923.249 739.431C910.874 716.143 913.455 679.965 921.85 659.904" stroke="#1D1D57" stroke-width="8"></path>
<path d="M700.085 540.97L700.785 630.529C700.785 630.529 701.512 683.763 734.364 704.324C772.141 727.968 765.845 798.181 765.845 798.181C765.845 798.181 765.845 855.499 835.802 877.709" stroke="#1D1D57" stroke-width="8"></path>
<path d="M763.047 650.59C763.047 650.59 816.914 644.141 833.004 600.437C849.094 556.733 830.651 557.022 839.3 538.105C844.824 526.022 862.133 521.985 866.583 509.446C876.09 482.66 872.18 439.949 860.287 424.187" stroke="#1D1D57" stroke-width="8"></path>
<path d="M849.794 838.303L826.708 915.682" stroke="#1D1D57" stroke-width="8"></path>
<path d="M843.498 450.696L872.18 466.458" stroke="#1D1D57" stroke-width="8"></path>
<path d="M835.103 467.175L872.18 486.519" stroke="#1D1D57" stroke-width="8"></path>
<path d="M824.609 484.37L867.983 507.297" stroke="#1D1D57" stroke-width="8"></path>
<path d="M815.515 504.431L853.991 523.059" stroke="#1D1D57" stroke-width="8"></path>
<path d="M838.601 538.105L805.021 523.059" stroke="#1D1D57" stroke-width="8"></path>
<path d="M837.901 559.599L795.227 540.254" stroke="#1D1D57" stroke-width="8"></path>
<path d="M837.901 578.943L785.433 557.449" stroke="#1D1D57" stroke-width="8"></path>
<path d="M833.004 598.288L775.639 573.928" stroke="#1D1D57" stroke-width="8"></path>
<path d="M823.02 617.305L768.391 590.469" stroke="#1D1D57" stroke-width="8"></path>
<path d="M808.519 631.961L757.409 608.023" stroke="#1D1D57" stroke-width="8"></path>
<path d="M789.4 642.373L752.04 625.369" stroke="#1D1D57" stroke-width="8"></path>
<path d="M700.085 565.979L719.673 561.031" stroke="#1D1D57" stroke-width="8"></path>
<path d="M699.386 588.974L731.566 580.376" stroke="#1D1D57" stroke-width="8"></path>
<path d="M700.785 610.468L740.661 601.154" stroke="#1D1D57" stroke-width="8"></path>
<path d="M700.085 633.394L750.455 620.498" stroke="#1D1D57" stroke-width="8"></path>
<path d="M707.213 658.605L760.249 641.992" stroke="#1D1D57" stroke-width="8"></path>
<path d="M711.978 677.099L769.343 659.12" stroke="#1D1D57" stroke-width="8"></path>
<path d="M727.052 697.552L779.137 682.114" stroke="#1D1D57" stroke-width="8"></path>
<path d="M748.356 717.221L788.548 704.582" stroke="#1D1D57" stroke-width="8"></path>
<path d="M760.249 741.581L798.725 727.968" stroke="#1D1D57" stroke-width="8"></path>
<path d="M764.446 761.642L807.819 746.596" stroke="#1D1D57" stroke-width="8"></path>
<path d="M766.545 785.285L817.613 766.657" stroke="#1D1D57" stroke-width="8"></path>
<path d="M765.845 808.212L826.325 785.542" stroke="#1D1D57" stroke-width="8"></path>
<path d="M776.339 831.139L835.103 808.212" stroke="#1D1D57" stroke-width="8"></path>
<path d="M790.264 851.524L844.197 826.84" stroke="#1D1D57" stroke-width="8"></path>
<path d="M810.104 865.786L846.996 844.752" stroke="#1D1D57" stroke-width="8"></path>
<path d="M914.854 686.413L934.442 680.681" stroke="#1D1D57" stroke-width="8"></path>
<path d="M914.854 704.325L942.137 695.727" stroke="#1D1D57" stroke-width="8"></path>
<path d="M918.776 722.735L949.133 711.489" stroke="#1D1D57" stroke-width="8"></path>
<path d="M925.772 741.082L958.227 727.251" stroke="#1D1D57" stroke-width="8"></path>
<path d="M937.452 759.927L968.021 746.596" stroke="#1D1D57" stroke-width="8"></path>
<path d="M950.257 771.672L973.681 761.207" stroke="#1D1D57" stroke-width="8"></path>
<path d="M958.927 788.151L982.988 776.969" stroke="#1D1D57" stroke-width="8"></path>
<path d="M963.824 802.48L990.195 791.081" stroke="#1D1D57" stroke-width="8"></path>
<path d="M965.923 817.526L996.492 805.845" stroke="#1D1D57" stroke-width="8"></path>
<path d="M967.11 832.572L1003.7 817.526" stroke="#1D1D57" stroke-width="8"></path>
<path d="M969.421 846.901L1010 832.073" stroke="#1D1D57" stroke-width="8"></path>
<path d="M974.042 863.098L1018.39 846.185" stroke="#1D1D57" stroke-width="8"></path>
<path d="M983.137 877.21L1025.39 861.947" stroke="#1D1D57" stroke-width="8"></path>
<path d="M998.103 891.322L1034.48 879.142" stroke="#1D1D57" stroke-width="8"></path>
<path d="M1010 902.785L1042.18 891.322" stroke="#1D1D57" stroke-width="8"></path>
<path d="M1014.89 913.532L1045.67 902.785" stroke="#1D1D57" stroke-width="8"></path>
</svg><style>@media (prefers-color-scheme: light) { :root { filter: none; } }
@media (prefers-color-scheme: dark) { :root { filter: none; } }
</style></svg>