<svg xmlns="http://www.w3.org/2000/svg" version="1.1" xmlns:xlink="http://www.w3.org/1999/xlink" width="650" height="650"><svg width="650" height="650" viewBox="0 0 650 650" fill="none" xmlns="http://www.w3.org/2000/svg">
<path d="M638.825 0C638.825 5.86254 633.126 10.0436 629.407 14.0035C627.861 15.6446 626.311 17.2806 624.749 18.9051C622.157 21.6175 619.693 24.3751 617.338 27.322C612.314 33.5088 606.746 39.1541 601.285 44.8981C599.094 47.2033 596.905 49.5119 594.719 51.8224C594.219 52.3457 593.72 52.869 593.205 53.4082C592.097 54.5793 581.41 67.1063 580.736 67.7728C580.112 68.4045 579.488 69.0362 578.845 69.6871C578.183 70.3556 577.522 71.0242 576.84 71.713C564.658 84.342 564.658 84.342 559.67 101.067C560.468 104.226 561.102 105.674 563.574 107.664C571.229 111.715 578.779 113.768 587.105 115.519C589.404 116.002 591.699 116.506 593.994 117.015C597.025 117.686 600.056 118.35 603.09 119.007C618.976 122.453 634.487 126.769 650 131.784V133.765C648.978 133.949 647.956 134.134 646.903 134.323C643.034 135.023 639.167 135.738 635.302 136.456C633.643 136.763 631.983 137.066 630.323 137.364C602.189 139.639 590.869 145.989 581.089 159.527C575.205 169.546 572.829 179.763 571.758 191.366C571.678 192.235 571.597 193.103 571.514 193.998C570.765 202.42 570.385 210.842 570.069 219.292C567.665 282.039 557.162 341.849 513.378 387.335C510.135 390.486 506.75 393.432 503.32 396.349C501.582 397.83 499.885 399.364 498.209 400.924C480.822 415.57 459.017 425.505 437.843 432.008C424.018 436.342 414.806 440.512 406.017 452.82C405.493 453.527 404.969 454.234 404.428 454.962C396.988 463.917 396.988 463.917 393.62 474.743C393.585 475.461 393.551 476.178 393.515 476.918C394.829 485.719 401.24 493.585 405.784 500.877C406.579 502.158 407.372 503.439 408.166 504.72C410.17 507.953 412.18 511.182 414.192 514.41C415.258 516.12 416.324 517.832 417.388 519.544C422.881 528.367 428.402 537.168 433.998 545.918C434.61 546.876 435.223 547.834 435.854 548.822C437.054 550.687 438.263 552.545 439.48 554.397C441.891 558.079 444.221 561.638 446.006 565.712C447.642 569.207 448.75 571.288 451.648 573.704C457.457 575.649 466.791 577.032 476.909 579.166C485.193 582 491.366 584.79 498.348 590.195C503.303 595.253 511.882 606.983 508.5 608.5C504.124 609.292 502.275 608.003 498.944 605.687C492.03 600.735 480.702 597.414 474.73 596.89C466.58 595.983 458.683 596.339 450.497 596.365C448.514 596.37 446.53 596.365 444.547 596.358C443.24 596.358 441.933 596.36 440.626 596.362C439.987 596.363 439.349 596.364 438.692 596.365C433.357 596.409 428.11 596.941 422.816 597.659C416.347 597.26 398.967 579.576 398.567 578.659C399.088 578.622 402.723 578.195 403.26 578.157C408.43 577.305 413.897 576.275 417.847 575.311C419.709 574.824 423.492 574.583 426.504 574.695C421.948 567.361 417.32 560.086 412.619 552.858C410.565 549.694 408.534 546.522 406.566 543.297C405.905 542.214 405.244 541.131 404.562 540.015C403.985 539.055 403.407 538.094 402.812 537.105C402.333 536.43 401.855 535.756 401.361 535.061H399.499C399.396 534.291 399.396 534.291 399.291 533.505C398.25 530.043 396.348 527.259 394.435 524.285C394.019 523.629 393.603 522.974 393.175 522.298C390.754 518.501 388.273 514.756 385.743 511.041C366.601 482.918 366.601 482.918 368.186 469.169C370.308 459.511 376.252 451.638 381.805 443.902C377.05 443.798 372.3 443.761 367.545 443.781C365.931 443.78 364.316 443.76 362.703 443.722C353.127 443.284 353.127 443.284 344.515 446.969C342.384 449.465 340.658 451.954 338.968 454.802C338.183 455.88 337.39 456.952 336.586 458.014C336.008 458.875 335.431 459.736 334.836 460.623C334.242 461.499 333.648 462.376 333.036 463.278C329.721 468.572 328.883 472.266 329.656 478.582C332.309 487.051 336.394 494.718 340.656 502.363C341.579 504.04 342.502 505.717 343.423 507.395C344.062 508.558 344.702 509.72 345.342 510.882C348.652 516.889 351.886 522.94 355.12 528.993C362.647 543.078 362.647 543.078 370.483 556.969C371.285 558.361 372.079 559.759 372.87 561.159C374.303 563.698 375.754 566.225 377.207 568.75C377.646 569.533 378.084 570.316 378.536 571.123C383.03 580.737 393.163 586.269 401.768 592.035C414.965 601.323 428.922 608.409 433.369 625.029C436.323 634.014 431.457 639.554 420.277 632.103C419.672 631.7 419.368 630.969 418.9 630.385C416.225 627.165 414.904 625.754 411.886 622.92C409.712 621.01 407.907 619.581 405.396 617.869C386.047 602.697 361.041 598.547 335.622 602.067C326.672 603.648 318.968 607.087 311.057 611.744C308.238 613.338 308.238 613.338 306.375 613.338C307.081 603.629 310.491 596.326 317.474 589.895C328.856 581.729 344.204 579.652 357.593 578.659C356.196 574.567 354.318 571.035 352.184 567.326C351.842 566.729 351.5 566.132 351.147 565.516C350.059 563.62 348.966 561.726 347.873 559.832C347.143 558.56 346.412 557.288 345.682 556.016C344.337 553.673 342.989 551.331 341.641 548.991C340.536 547.068 339.467 545.122 338.448 543.147C337.216 540.707 337.216 540.707 334.312 540.015C334.219 539.317 334.125 538.618 334.029 537.898C333.277 534.605 332.073 532.235 330.471 529.302C330.157 528.727 329.843 528.151 329.52 527.559C324.956 519.291 320.105 511.203 315.302 503.09C301.993 480.532 301.993 480.532 304.513 467.931C307.063 458.116 312.546 449.786 318.481 441.921C316.07 440.322 314.486 440.002 310.91 439.827C303.281 439.286 296.055 437.852 288.624 435.976C288.026 435.826 287.429 435.677 286.814 435.523C266.29 432.532 249.634 421.846 231.528 414.239C229.083 413.186 229.083 413.186 227.221 412.195C222.238 411.965 217.524 412.546 212.616 413.321C211.836 413.44 211.057 413.559 210.254 413.681C208.576 413.937 206.899 414.194 205.221 414.454C200.746 415.144 196.268 415.816 191.79 416.488C190.872 416.625 189.954 416.763 189.008 416.905C180.155 418.227 171.294 419.471 162.424 420.663C160.819 420.879 159.213 421.096 157.607 421.316C155.365 421.622 153.121 421.922 150.878 422.22C150.229 422.309 149.579 422.399 148.91 422.491C144.554 423.057 140.338 423.168 135.96 423.095C137.223 419.411 138.797 416.351 140.856 413.105C141.438 412.182 142.021 411.259 142.62 410.308C143.53 408.882 143.53 408.882 144.457 407.427C145.071 406.457 145.684 405.486 146.316 404.487C147.827 402.099 149.341 399.715 150.86 397.332C149.966 397.342 149.966 397.342 149.055 397.352C42.0529 398.484 42.0529 398.484 1.86246 363.643C1.24785 362.989 0.633238 362.335 0 361.662C3.42547 360.055 6.55746 359.238 10.2581 358.674C11.446 358.484 12.6339 358.294 13.8578 358.098C14.5122 357.994 15.1667 357.891 15.841 357.784C71.4132 348.89 126.676 336.094 181.416 322.709C182.896 322.347 182.896 322.347 184.407 321.979C190.927 320.382 197.436 318.743 203.94 317.073C205.401 316.702 205.401 316.702 206.891 316.324C209.815 315.576 212.734 314.809 215.653 314.035C216.534 313.811 217.414 313.588 218.322 313.358C225.652 311.374 230.36 308.074 235.969 302.616C238.804 299.969 241.878 297.651 244.914 295.274C249.52 291.617 254.101 287.927 258.65 284.189C274.85 270.886 291.401 258.073 308.008 245.353C318.985 236.944 329.952 228.522 340.831 219.97C341.428 219.501 342.026 219.033 342.641 218.55C366.176 200.348 366.176 200.348 386.461 178.354C387.313 177.319 388.166 176.287 389.022 175.257C390.036 173.982 391.045 172.702 392.049 171.418C392.684 170.618 393.319 169.819 393.973 168.995C404.312 155.258 409.448 139.176 414.652 122.69C425.054 89.7591 439.99 62.0434 470.16 45.617C494.763 32.7717 522.258 31.6639 549.063 35.694C585.11 42.3224 578.093 22.6874 638.825 0ZM460.029 81.25C459.338 81.9129 458.648 82.5758 457.937 83.2588C445.583 95.379 439.314 113.802 434.22 130.462C427.017 153.909 418.447 174.308 403.223 193.216C402.33 194.371 401.437 195.527 400.546 196.684C398.567 199.162 398.567 199.162 396.879 200.896C392.607 204.887 389.525 208.14 385.53 211.547C379.642 217.495 373.435 222.768 366.905 227.896C366.366 228.324 365.826 228.751 365.269 229.192C355.289 237.091 345.12 244.702 334.939 252.304C332.789 253.91 330.641 255.518 328.492 257.127C327.837 257.614 327.183 258.102 326.508 258.605C323.939 260.529 321.414 262.458 318.962 264.55C315.801 267.234 312.487 269.656 309.169 272.113C303.306 276.485 297.591 280.988 291.945 285.672C287.985 288.935 283.935 292.065 279.893 295.212C272.455 301.02 265.144 306.963 257.951 313.11C257.36 313.614 256.769 314.118 256.159 314.638C233.772 333.757 210.393 353.949 192.66 378.119C190.823 380.595 188.88 382.923 186.887 385.256C184.168 388.466 181.855 391.673 179.728 395.351C190.687 394.665 201.522 392.866 212.379 391.201C213.381 391.049 214.382 390.896 215.414 390.739C234.921 387.763 254.464 384.666 273.782 380.488C274.722 380.287 275.661 380.087 276.629 379.88C318.39 370.886 359.91 359.309 398.567 339.863C399.205 339.543 399.843 339.222 400.5 338.892C438.76 319.246 470.725 293.597 479.01 249.265C479.643 232.03 474.414 218.565 463.477 205.827C461.203 203.373 453.044 196.209 453.044 195.198C469.729 200.941 484.232 208.053 493.08 224.92C500.087 239.774 499.961 256.864 495.154 272.454C486.587 298.216 468.599 316.722 456.304 326.982C455.37 327.781 454.436 328.581 453.474 329.405C445.808 335.904 437.72 341.477 429.298 346.799C428.714 347.17 428.13 347.542 427.528 347.924C385.483 374.462 337.777 388.296 290.37 399.314C289.54 399.507 288.71 399.701 287.855 399.9C285.48 400.452 283.103 400.999 280.726 401.543C280.025 401.705 279.324 401.867 278.602 402.033C275.443 402.748 272.371 403.34 269.158 403.757C267.759 404.01 267.759 404.01 266.332 404.268C266.025 404.922 265.718 405.576 265.401 406.25C280.212 411.068 294.929 414.935 310.217 417.583C310.927 417.707 311.637 417.831 312.369 417.958C343.713 423.374 375.717 423.567 406.948 417.149C407.767 416.987 408.585 416.826 409.429 416.659C444.164 409.688 478.074 394.157 502.865 366.616C503.614 365.839 504.363 365.063 505.135 364.263C530.796 336.293 547.543 299.457 549.834 209.07C550.626 184.254 552.53 160.344 568.332 140.69C570.052 138.626 570.052 138.626 571.777 135.747C570.809 135.447 569.841 135.147 568.845 134.837C547.098 127.956 547.098 127.956 541.046 117.912C537.078 109.543 536.072 101.603 538.252 92.521C541.741 81.4357 547.323 71.186 553.647 61.6884C555.184 59.6192 555.722 58.8413 555.552 56.6916L549.427 56.4787C516.385 52.5877 484.776 55.2212 460.029 81.25ZM189.04 343.826C188.4 343.974 187.759 344.121 187.099 344.273C178.764 346.191 170.429 348.106 162.093 350.019C161.082 350.251 161.082 350.251 160.052 350.487C131.864 356.956 103.654 363.303 75.4298 369.588C75.7371 370.242 76.0444 370.896 76.361 371.57C83.433 373.737 91.0548 374.104 98.3614 374.667C99.9701 374.791 99.9701 374.791 101.611 374.917C115.201 375.911 128.546 375.498 142.129 374.667C143.104 374.608 143.104 374.608 144.098 374.549C148.53 374.279 152.954 373.948 157.378 373.552C158.022 373.496 158.665 373.44 159.328 373.382C161.23 373.205 163.127 372.997 165.025 372.778C166.129 372.657 167.234 372.536 168.372 372.412C173.866 370.857 176.531 366.377 179.728 361.662C180.877 360.244 182.04 358.84 183.22 357.45C185.827 354.269 188.378 351.045 190.903 347.79C189.981 345.828 189.981 345.828 189.04 343.826Z" fill="#3D5A73"></path>
<path d="M502.4 109.985C511.4 109.985 518.697 102.222 518.697 92.6451C518.697 83.0685 511.4 75.3052 502.4 75.3052C493.4 75.3052 486.104 83.0685 486.104 92.6451C486.104 102.222 493.4 109.985 502.4 109.985Z" fill="#3D5A73"></path>
</svg><style>@media (prefers-color-scheme: light) { :root { filter: none; } }
@media (prefers-color-scheme: dark) { :root { filter: invert(100%); } }
</style></svg>