<svg width="700" height="700" viewBox="0 0 700 700" fill="none" xmlns="http://www.w3.org/2000/svg">
<path d="M347.189 0.0411264C349.932 0.0389385 352.674 0.0206126 355.417 0.00145378C367.661 -0.0383819 379.654 0.741203 391.804 2.24678C392.995 2.39421 394.186 2.54163 395.413 2.69353C454.413 10.5411 512.014 32.5716 559.112 69.4868C560.816 70.8106 562.539 72.102 564.275 73.3835C571.866 79.0267 578.732 85.2359 585.558 91.7759C587.927 94.0406 590.35 96.2048 592.852 98.3206C595.282 100.386 597.442 102.468 599.469 104.944C602.196 108.168 605.07 111.14 608.088 114.091C613.256 119.234 617.821 124.683 622.305 130.429C622.781 131.031 623.257 131.633 623.747 132.253C655.017 171.873 679.067 217.362 690.751 266.686C690.978 267.634 691.204 268.581 691.438 269.557C694.98 284.636 697.075 299.728 698.519 315.145C698.698 317.048 698.89 318.949 699.098 320.849C699.965 329.134 700.01 337.407 699.999 345.728C699.998 346.863 699.998 346.863 699.998 348.02C699.978 359.837 699.542 371.504 698.107 383.245C697.793 385.818 697.515 388.393 697.239 390.97C691.82 438.183 675.749 485.312 651.495 526.08C651.032 526.858 650.57 527.637 650.093 528.439C642.923 540.383 634.967 551.501 626.332 562.415C625.265 563.791 625.265 563.791 624.177 565.194C622.246 567.663 620.273 570.09 618.279 572.508C617.45 573.527 616.621 574.545 615.767 575.595C608.464 584.392 600.533 592.538 592.486 600.643C591.954 601.181 591.422 601.72 590.874 602.275C583.908 609.313 576.741 615.826 568.958 621.964C567.723 622.962 566.488 623.961 565.254 624.961C513.554 666.223 451.428 691.802 385.765 698.672C384.952 698.759 384.139 698.845 383.302 698.935C376.477 699.617 369.718 699.858 362.862 699.886C361.756 699.892 360.649 699.898 359.509 699.904C357.174 699.913 354.838 699.92 352.503 699.924C349.024 699.933 345.547 699.965 342.068 699.997C262.853 700.372 185.1 669.435 125.62 617.26C124.033 615.884 122.421 614.541 120.801 613.204C113.5 607.135 106.676 600.677 99.9665 593.956C98.7693 592.757 98.7693 592.757 97.5479 591.533C92.7677 586.694 88.2164 581.717 83.7987 576.545C82.9242 575.549 82.0497 574.552 81.1487 573.525C58.2655 546.983 40.7544 516.601 26.4251 484.698C26.1325 484.048 25.8399 483.398 25.5385 482.728C11.8261 451.732 5.01347 417.298 1.26126 383.767C1.15746 382.915 1.05366 382.064 0.946716 381.187C-0.105326 371.531 0.0101795 361.801 0.00307176 352.099C0.00205808 351.139 0.0010444 350.179 0 349.189C0.0117947 332.601 0.884224 316.428 3.27437 299.994C3.41986 298.976 3.56534 297.959 3.71523 296.91C13.4225 231.123 42.7419 168.994 87.4868 119.914C89.3853 117.81 91.2385 115.68 93.0858 113.531C97.1103 108.912 101.364 104.547 105.691 100.213C106.491 99.4123 107.29 98.6115 108.114 97.7864C113.051 92.8871 118.032 88.2757 123.51 83.9892C126.328 81.7834 129.023 79.4593 131.736 77.1251C183.047 34.2045 249.228 7.70921 315.493 1.5063C317.267 1.33792 319.04 1.15392 320.811 0.946944C329.583 -0.0193286 338.375 0.0403434 347.189 0.0411264Z" fill="#3D5A73"/>
<path d="M561.912 108.225C558.846 118.459 552.007 126.686 545.493 134.971C539.017 143.36 532.943 151.961 527.06 160.772C526.491 161.617 526.491 161.617 525.91 162.479C515.176 177.039 515.176 177.039 512.591 194.016C520.696 205.374 536.568 209.168 549.204 213.698C558.161 216.924 567.063 220.199 575.791 224.011C576.449 224.298 577.106 224.584 577.784 224.879C581.379 226.478 584.758 228.245 588.082 230.351C588.027 232.188 588.027 232.188 587.076 234.388C584.655 235.568 582.442 236.452 579.904 237.29C578.431 237.812 576.957 238.335 575.485 238.859C574.733 239.122 573.981 239.384 573.206 239.655C559.392 244.534 546.169 249.293 538.128 262.267C536.319 266.737 536.213 270.545 536.245 275.329C536.246 276.278 536.248 277.227 536.249 278.204C536.473 289.103 538.532 299.671 540.582 310.347C544.941 333.926 545.512 362.421 539.768 385.785C539.557 386.664 539.346 387.543 539.129 388.448C532.317 416.316 521.198 441.743 503.532 464.512C503.093 465.08 502.654 465.648 502.202 466.234C490.926 480.628 477.678 493.832 462.952 504.646C461.249 505.899 459.568 507.176 457.887 508.456C446.19 517.235 433.425 524.115 420.24 530.369C419.536 530.706 418.832 531.042 418.107 531.389C414.798 532.939 411.537 534.331 408.051 535.431C398.319 538.74 394.605 543.624 390.173 552.546C389.211 554.885 388.786 556.324 388.714 558.878C390.392 562.815 392.842 566.063 395.39 569.48C395.965 570.265 396.54 571.049 397.133 571.858C403.725 580.811 410.482 589.641 417.231 598.474C423.447 606.624 429.523 614.875 435.549 623.166C437.686 626.221 437.686 626.221 440.119 629.029C441.939 629.152 443.764 629.211 445.588 629.242C446.72 629.271 447.852 629.3 449.019 629.329C451.396 629.381 453.774 629.426 456.151 629.463C472.276 629.903 482.784 635.482 494.638 646.235C496.486 648.206 496.486 648.206 496.486 650.225C488.598 652.8 480.652 652.575 472.447 652.583C470.893 652.589 469.339 652.596 467.785 652.603C464.542 652.615 461.298 652.619 458.055 652.618C453.907 652.617 449.761 652.645 445.614 652.68C442.41 652.702 439.206 652.706 436.003 652.705C434.474 652.708 432.945 652.717 431.416 652.732C429.277 652.752 427.139 652.746 425.001 652.734C423.18 652.738 423.18 652.738 421.322 652.743C414.195 651.68 409.451 646.056 404.575 641.141C403.939 640.519 403.302 639.897 402.646 639.257C402.041 638.65 401.436 638.044 400.812 637.419C400.266 636.874 399.719 636.329 399.156 635.767C397.685 633.872 397.249 632.384 396.837 630.039C398.83 629.373 400.823 628.706 402.876 628.02C401.309 623.215 398.623 619.725 395.579 615.782C394.478 614.335 393.379 612.886 392.28 611.437C391.705 610.682 391.131 609.926 390.539 609.148C387.627 605.292 384.78 601.389 381.928 597.488C376.209 589.681 370.428 581.923 364.601 574.196C355.553 562.159 355.553 562.159 355.631 558.378C356.641 555.137 358.053 552.31 359.595 549.294C351.676 549.224 343.758 549.17 335.839 549.137C332.161 549.121 328.484 549.1 324.807 549.065C321.257 549.032 317.707 549.014 314.156 549.006C312.146 548.998 310.136 548.975 308.126 548.951C306.897 548.95 305.668 548.95 304.402 548.95C302.783 548.94 302.783 548.94 301.131 548.93C296.652 549.485 294.045 551.2 291.275 554.719C289.899 557.938 290.239 559.084 291.149 562.415C292.228 564.876 292.228 564.876 293.614 567.355C294.129 568.307 294.643 569.26 295.174 570.241C295.735 571.259 296.296 572.278 296.874 573.328C297.455 574.393 298.036 575.458 298.634 576.555C304.46 587.17 310.537 597.635 316.681 608.066C318.266 610.761 319.843 613.46 321.416 616.161C322.336 617.738 323.256 619.315 324.176 620.892C324.594 621.609 325.011 622.325 325.441 623.064C327.173 626.228 327.173 626.228 329.398 629.029C330.851 629.139 332.309 629.187 333.766 629.207C352.287 629.632 363.452 633.906 376.706 647.197C376.706 648.529 376.706 649.862 376.706 651.234C354.918 652.201 333.159 652.433 311.353 652.431C306.781 652.43 302.209 652.445 297.638 652.462C294.067 652.473 290.496 652.475 286.926 652.474C285.238 652.476 283.551 652.48 281.863 652.488C279.52 652.498 277.177 652.495 274.834 652.489C272.847 652.491 272.847 652.491 270.82 652.493C266.594 652.218 263.008 651.369 258.939 650.225C259.257 647.008 259.657 645.488 261.892 643.097C272.597 634.791 282.004 631.195 295.175 629.029C292.985 621.28 289.477 615.082 285.235 608.275C279.885 599.52 274.741 590.696 269.885 581.655C269.363 580.683 268.84 579.711 268.301 578.709C266.843 575.977 265.402 573.237 263.972 570.489C263.49 569.566 263.008 568.643 262.511 567.691C262.055 566.801 261.599 565.911 261.129 564.993C260.723 564.203 260.318 563.413 259.9 562.6C258.345 559.033 257.955 556.032 258.939 552.322C260.712 548.464 262.753 544.831 264.978 541.219C264.373 541.177 263.767 541.135 263.144 541.092C256.686 540.555 250.698 539.325 244.47 537.561C243.511 537.292 242.552 537.024 241.564 536.748C229.702 533.363 218.056 529.43 206.704 524.585C205.215 523.953 205.215 523.953 203.695 523.307C201.776 522.484 199.865 521.645 197.962 520.787C192.718 518.522 189.146 517.297 183.447 519.014C180.839 520.368 180.839 520.368 178.478 522.295C177.529 523.025 176.581 523.754 175.603 524.506C174.526 525.365 173.45 526.226 172.375 527.089C171.771 527.569 171.167 528.049 170.545 528.543C162.356 535.063 154.376 541.803 146.496 548.693C138.278 555.875 129.808 562.69 121.167 569.354C120.436 569.919 119.705 570.484 118.952 571.067C116.979 572.578 114.989 574.062 112.989 575.536C112.093 576.205 111.198 576.873 110.276 577.562C107.956 578.564 107.956 578.564 105.483 578.087C102.27 576.152 99.7719 573.75 97.1983 571.057C96.4656 570.314 96.4656 570.314 95.718 569.557C90.0243 563.722 90.0244 563.722 89.4211 559.493C89.9724 555.347 91.3415 554.31 94.4932 551.628C95.2374 550.985 95.2374 550.985 95.9967 550.33C100.927 546.123 106.055 542.15 111.172 538.176C115.369 534.899 119.463 531.503 123.557 528.098C128.706 523.822 133.884 519.599 139.159 515.482C146.708 509.588 154.091 503.495 161.441 497.355C162.671 496.335 163.911 495.327 165.16 494.333C166.594 493.182 167.98 491.973 169.356 490.754C169.356 490.088 169.356 489.421 169.356 488.735C168.564 488.72 167.773 488.706 166.958 488.69C82.268 486.958 82.1791 486.882 51.5 471.5C48.8725 470.183 49 471 51.5889 468.549C53.6022 466.733 55.5893 465.119 57.754 463.502C59.0608 462.5 60.3675 461.497 61.6741 460.494C62.6795 459.73 62.6795 459.73 63.7053 458.951C66.6722 456.691 69.6073 454.392 72.5378 452.084C73.3963 451.41 73.3963 451.41 74.2722 450.722C79.7643 446.39 85.1437 441.923 90.5253 437.454C95.4997 433.332 100.54 429.308 105.632 425.334C110.332 421.651 114.938 417.861 119.531 414.046C125.234 409.309 130.992 404.662 136.835 400.101C141.536 396.419 146.141 392.628 150.734 388.813C156.463 384.056 162.243 379.382 168.109 374.797C172.598 371.283 177.023 367.696 181.434 364.085C191.317 356.004 201.344 348.12 211.464 340.339C216.151 336.733 220.812 333.095 225.471 329.453C232.104 324.271 238.767 319.132 245.454 314.021C250.667 310.031 255.846 305.997 261.015 301.949C267.323 297.014 273.681 292.155 280.093 287.357C285.866 283.034 291.61 278.672 297.313 274.256C300.151 272.059 302.975 269.889 305.929 267.85C326.743 253.303 336.238 223.511 344.964 200.712C348.646 191.102 352.537 181.8 357.582 172.82C358.193 171.709 358.804 170.598 359.433 169.453C373.058 145.929 393.716 128.882 420.065 121.561C423.049 120.768 426.04 120.028 429.047 119.327C429.789 119.149 430.532 118.971 431.297 118.787C434.751 118.204 438.148 118.135 441.641 118.113C442.73 118.102 442.73 118.102 443.842 118.091C446.187 118.074 448.532 118.068 450.877 118.065C452.07 118.063 452.07 118.063 453.288 118.061C467.658 118.067 481.516 118.714 495.141 123.818C502.96 125.666 508.179 123.607 515.17 120.273C523.061 116.687 530.962 113.736 539.265 111.252C540.244 110.96 541.223 110.667 542.231 110.365C549.258 108.31 554.564 106.924 561.912 108.225Z" fill="#FCFDFD"/>
<path d="M454.148 146.326C455.328 146.318 456.508 146.31 457.724 146.302C468.772 146.327 481.758 146.6 491.453 152.634C492.896 154.416 492.896 154.416 493.466 156.671C492.483 159.439 492.483 159.439 490.824 162.601C484.887 174.78 480.646 187.364 485.036 200.703C491.541 216.623 503.784 224.113 518.63 231.361C520.298 232.056 521.972 232.74 523.663 233.379C522.281 236.484 520.673 238.585 518.316 241.012C509.689 250.671 506.823 263.177 507.09 275.857C507.644 285.815 509.857 295.662 511.774 305.431C514.024 316.953 514.792 328.037 514.79 339.763C514.793 341.981 514.811 344.199 514.83 346.418C514.887 360.195 513.653 373.505 509.823 386.795C509.556 387.738 509.289 388.682 509.014 389.655C503.003 410.475 494.38 430.616 480.381 447.353C479.475 448.477 478.569 449.6 477.664 450.724C448.736 486.102 406.426 510.783 361.608 519.014C360.64 519.196 359.672 519.378 358.675 519.566C347.332 521.444 336.024 521.435 324.554 521.412C323.5 521.411 322.446 521.41 321.361 521.409C305.521 521.365 290.517 520.637 275.044 516.996C273.935 516.752 272.826 516.509 271.683 516.258C250.613 511.609 229.555 505.406 210.625 494.791C210.625 492.792 210.625 490.794 210.625 488.735C215.163 486.152 219.188 485.117 224.319 484.627C225.864 484.455 227.409 484.283 228.953 484.109C229.768 484.021 230.582 483.933 231.421 483.843C294.018 476.943 372.119 460.47 413.724 408.597C430.805 386.561 438.177 362.197 436.093 334.31C433.786 319.264 425.516 306.565 414.955 295.957C414.337 295.325 413.72 294.694 413.083 294.044C395.524 277.377 371.321 273.216 348.522 268.705C349.302 264.109 350.858 261.327 353.429 257.413C362.667 242.636 368.433 225.78 374.378 209.471C383.655 184.194 397.722 163.038 422.441 150.805C432.614 146.475 443.237 146.254 454.148 146.326Z" fill="#3D5A73"/>
<path d="M392.236 310.868C401.718 318.71 407.931 329.024 409.23 341.328C409.995 360.792 401.759 379.666 388.753 393.836C369.639 413.727 343.703 426.36 318.326 436.251C317.107 436.731 317.107 436.731 315.864 437.22C307.781 440.294 299.51 442.548 291.149 444.704C290.39 444.9 289.631 445.096 288.849 445.299C262.848 451.969 236.345 456.103 209.618 458.456C207.872 458.612 207.872 458.612 206.091 458.771C187.784 460.351 169.604 460.802 151.237 460.474C149.891 460.454 148.545 460.435 147.199 460.415C143.176 460.354 139.155 460.259 135.133 460.159C133.895 460.136 132.658 460.114 131.384 460.091C130.233 460.055 129.083 460.019 127.898 459.982C126.887 459.955 125.876 459.929 124.835 459.901C121.579 459.392 119.615 458.457 117.015 456.437C117.015 453.409 117.015 453.409 118.33 452.069C118.944 451.619 119.559 451.168 120.192 450.705C120.881 450.19 121.57 449.675 122.28 449.145C123.034 448.595 123.787 448.046 124.564 447.479C126.145 446.299 127.724 445.116 129.302 443.931C130.108 443.327 130.915 442.722 131.746 442.1C135.356 439.352 138.865 436.486 142.367 433.601C147.274 429.57 152.21 425.587 157.214 421.679C162.509 417.539 167.707 413.293 172.878 408.999C178.609 404.241 184.39 399.563 190.26 394.979C194.688 391.513 199.044 387.966 203.39 384.397C209.608 379.298 215.942 374.375 222.344 369.511C227.241 365.777 232.039 361.942 236.795 358.029C242.975 352.946 249.267 348.037 255.637 343.195C260.282 339.656 264.85 336.037 269.382 332.355C280.887 323.046 292.867 314.342 304.989 305.86C305.624 305.411 306.259 304.961 306.913 304.498C330.736 288.04 369.916 294.531 392.236 310.868Z" fill="#3D5A73"/>
<path d="M459.369 181.463C463.3 184.805 465.691 187.85 466.67 192.991C466.996 198.43 465.38 201.735 462.263 206.128C457.036 210.985 452.797 211.531 445.883 211.458C440.744 210.927 438.106 208.256 434.771 204.551C431.796 200.241 431.562 196.086 432.066 190.988C433.38 186.598 434.868 182.944 438.978 180.552C445.215 178.616 453.445 178.486 459.369 181.463Z" fill="#FCFCFD"/>
<path d="M0.254397 358.534C3.07233 362.772 3.39081 364.688 3.33697 369.762C3.32789 370.868 3.3188 371.974 3.30945 373.114C3.29777 373.965 3.28609 374.815 3.27406 375.692C1.77602 374.632 1.77602 374.632 0.254397 372.664C-0.0404922 369.277 -0.0404922 369.277 0.0656678 365.41C0.0929156 364.126 0.120163 362.841 0.148237 361.518C0.18327 360.534 0.218302 359.549 0.254397 358.534Z" fill="#3D5A73"/>
<path d="M408.916 414.046C409.58 414.712 410.244 415.378 410.929 416.065C409.316 417.539 407.701 419.01 406.085 420.48C405.186 421.3 404.287 422.12 403.36 422.964C400.863 425.148 400.863 425.148 397.844 427.167C399.39 423.452 401.65 421.124 404.512 418.336C405.335 417.529 406.157 416.722 407.005 415.891C407.951 414.978 407.951 414.978 408.916 414.046Z" fill="#3D5A73"/>
<path d="M509.571 228.333C514.674 228.993 519.053 231.214 523.663 233.379C523.331 234.378 522.999 235.378 522.656 236.407C520.643 235.398 520.643 235.398 517.624 233.379C516.228 232.646 514.823 231.932 513.409 231.234C512.689 230.878 511.969 230.521 511.227 230.154C510.68 229.886 510.134 229.618 509.571 229.342C509.571 229.009 509.571 228.676 509.571 228.333Z" fill="#3D5A73"/>
<path d="M122.047 449.372C122.712 449.705 123.376 450.038 124.061 450.381C123.344 451.287 123.344 451.287 122.614 452.211C120.875 454.422 120.875 454.422 120.034 457.446C119.038 457.113 118.041 456.78 117.015 456.437C117.015 455.438 117.015 454.439 117.015 453.409C119.531 451.201 119.531 451.201 122.047 449.372Z" fill="#3D5A73"/>
<path d="M289.136 317.152C289.8 317.485 290.464 317.818 291.149 318.161C287.804 323.006 287.804 323.006 284.355 324.028C283.607 324.09 282.86 324.153 282.09 324.217C284.438 321.862 286.787 319.507 289.136 317.152Z" fill="#3D5A73"/>
</svg>
