<svg width="50" height="60" viewBox="0 0 50 60" fill="none" xmlns="http://www.w3.org/2000/svg">
<path d="M20 1.5H30C40.2173 1.5 48.5 9.78273 48.5 20V50C48.5 54.6944 44.6944 58.5 40 58.5H10C5.30558 58.5 1.5 54.6944 1.5 50V20C1.5 9.78273 9.78273 1.5 20 1.5Z" stroke="#D9B282" stroke-width="3"/>
<path d="M24.2929 50.7071C24.6834 51.0976 25.3166 51.0976 25.7071 50.7071L32.0711 44.3431C32.4616 43.9526 32.4616 43.3195 32.0711 42.9289C31.6805 42.5384 31.0474 42.5384 30.6569 42.9289L25 48.5858L19.3431 42.9289C18.9526 42.5384 18.3195 42.5384 17.9289 42.9289C17.5384 43.3195 17.5384 43.9526 17.9289 44.3431L24.2929 50.7071ZM25 30H24V50H25H26V30H25Z" fill="#D9B282"/>
</svg>
